<svg xmlns="http://www.w3.org/2000/svg" xmlns:xlink="http://www.w3.org/1999/xlink" viewBox="0 0 1080 1080"><defs><style>.cls-1{fill:url(#New_Gradient_Swatch_copy_2);}</style><linearGradient id="New_Gradient_Swatch_copy_2" x1="540" y1="18.36" x2="540" y2="1072.25" gradientUnits="userSpaceOnUse"><stop offset="0" stop-color="#fcda78"/><stop offset="0.48" stop-color="#ff7f7c"/><stop offset="1" stop-color="#ff457c"/></linearGradient></defs><g id="Layer_3" data-name="Layer 3"><path class="cls-1" d="M180,420h0c0-165.68,134.31-300,300-300H960a60,60,0,0,0,60-60h0A60,60,0,0,0,960,0H480C248.05,0,60,188,60,420h0c0,232,188,420,420,420H600A180,180,0,0,0,780,660h0A180,180,0,0,0,600,480H480a60,60,0,0,1-60-60h0a60,60,0,0,1,60-60H600c165.69,0,300,134.32,300,300h0c0,165.69-134.31,300-300,300H120a60,60,0,0,0-60,60h0a60,60,0,0,0,60,60H600c232,0,420-188,420-420h0c0-232-188-420-420-420H480A180,180,0,0,0,300,420h0A180,180,0,0,0,480,600H600a60,60,0,0,1,60,60h0a60,60,0,0,1-60,60H480C314.32,720,180,585.67,180,420Z"/></g></svg>