<svg xmlns="http://www.w3.org/2000/svg" viewBox="0 0 28.45 32"><defs><style>.cls-1{fill:#fff;}</style></defs><g id="Layer_2" data-name="Layer 2"><g id="Layer_1-2" data-name="Layer 1"><g id="Layer_3" data-name="Layer 3"><path class="cls-1" d="M3.56,12.44h0a8.89,8.89,0,0,1,8.89-8.89H26.67a1.78,1.78,0,0,0,1.78-1.77h0A1.78,1.78,0,0,0,26.67,0H12.45A12.44,12.44,0,0,0,0,12.45H0A12.44,12.44,0,0,0,12.45,24.89H16a5.33,5.33,0,0,0,5.33-5.33h0A5.33,5.33,0,0,0,16,14.22H12.45a1.78,1.78,0,0,1-1.78-1.78h0a1.78,1.78,0,0,1,1.78-1.78H16a8.89,8.89,0,0,1,8.89,8.89h0A8.89,8.89,0,0,1,16,28.44H1.78A1.78,1.78,0,0,0,0,30.22H0A1.78,1.78,0,0,0,1.78,32H16A12.45,12.45,0,0,0,28.45,19.55h0A12.45,12.45,0,0,0,16,7.11H12.45a5.34,5.34,0,0,0-5.34,5.33h0a5.34,5.34,0,0,0,5.34,5.34H16a1.78,1.78,0,0,1,1.78,1.77h0A1.78,1.78,0,0,1,16,21.33H12.45A8.89,8.89,0,0,1,3.56,12.44Z"/></g></g></g></svg>